<svg xmlns="http://www.w3.org/2000/svg" viewBox="0 0 800 70" width="800" height="70">
  <defs>
    <symbol id="qb" viewBox="0 0 28 28">
      <rect width="28" height="28" fill="#000" rx="2"/>
      <rect x="1" y="1" width="26" height="26" fill="#F0C800" rx="1"/>
      <rect x="2" y="2" width="24" height="24" fill="#E8B800" rx="1"/>
      <rect x="1" y="1" width="26" height="2" fill="#F8E060"/>
      <rect x="1" y="1" width="2" height="26" fill="#F8E060"/>
      <rect x="9" y="6" width="10" height="3" fill="#fff"/>
      <rect x="16" y="6" width="3" height="8" fill="#fff"/>
      <rect x="11" y="12" width="8" height="3" fill="#fff"/>
      <rect x="11" y="12" width="3" height="6" fill="#fff"/>
      <rect x="11" y="20" width="3" height="3" fill="#fff"/>
      <circle cx="5" cy="5" r="2" fill="#A08000"/><circle cx="23" cy="5" r="2" fill="#A08000"/>
      <circle cx="5" cy="23" r="2" fill="#A08000"/><circle cx="23" cy="23" r="2" fill="#A08000"/>
    </symbol>
    <symbol id="coin" viewBox="0 0 12 14">
      <rect x="4" y="0" width="4" height="2" fill="#000"/>
      <rect x="2" y="2" width="2" height="2" fill="#000"/><rect x="8" y="2" width="2" height="2" fill="#000"/>
      <rect x="0" y="4" width="2" height="6" fill="#000"/><rect x="10" y="4" width="2" height="6" fill="#000"/>
      <rect x="2" y="10" width="2" height="2" fill="#000"/><rect x="8" y="10" width="2" height="2" fill="#000"/>
      <rect x="4" y="12" width="4" height="2" fill="#000"/>
      <rect x="4" y="2" width="4" height="10" fill="#E8A800"/>
      <rect x="2" y="4" width="8" height="6" fill="#E8A800"/>
      <rect x="2" y="4" width="2" height="6" fill="#fff"/>
      <rect x="4" y="2" width="2" height="2" fill="#fff"/>
      <rect x="4" y="4" width="2" height="6" fill="#F8D830"/>
    </symbol>
  </defs>
  <style>
    @keyframes bump{0%,85%,100%{transform:translateY(0)}90%{transform:translateY(-5px)}95%{transform:translateY(-1px)}}
    @keyframes cs{0%,100%{transform:scaleX(1)}50%{transform:scaleX(.15)}}
    @keyframes fl{0%,100%{transform:translateY(0)}50%{transform:translateY(-4px)}}
    .b0{animation:bump 4.5s ease-in-out infinite 0s}.b1{animation:bump 4.5s ease-in-out infinite .7s}.b2{animation:bump 4.5s ease-in-out infinite 1.4s}.b3{animation:bump 4.5s ease-in-out infinite 2.1s}.b4{animation:bump 4.5s ease-in-out infinite 2.8s}.b5{animation:bump 4.5s ease-in-out infinite 3.5s}
    .c0{animation:cs 2s ease-in-out infinite .2s}.c1{animation:cs 2s ease-in-out infinite .6s}.c2{animation:cs 2s ease-in-out infinite 1s}.c3{animation:cs 2s ease-in-out infinite 1.4s}.c4{animation:cs 2s ease-in-out infinite 1.8s}
    .f0{animation:fl 2.5s ease-in-out infinite .1s}.f1{animation:fl 2.5s ease-in-out infinite .5s}.f2{animation:fl 2.5s ease-in-out infinite .9s}.f3{animation:fl 2.5s ease-in-out infinite 1.3s}.f4{animation:fl 2.5s ease-in-out infinite 1.7s}
  </style>
  <rect width="800" height="70" fill="#050c21"/>

  <!-- Block positions: 6 blocks evenly spaced, centered -->
  <!-- x centers: 82, 192, 302, 412, 522, 632 (110px spacing) -->

  <!-- React -->
  <g class="b0" transform-origin="82 22"><use href="#qb" x="68" y="8" width="28" height="28"/></g>
  <text x="82" y="52" font-family="'Press Start 2P','Courier New',monospace" font-size="7" fill="#61DAFB" text-anchor="middle">React</text>

  <!-- Coin -->
  <g class="f0" transform-origin="137 22"><g class="c0" transform-origin="137 22"><use href="#coin" x="131" y="15" width="12" height="14"/></g></g>

  <!-- Next.js -->
  <g class="b1" transform-origin="192 22"><use href="#qb" x="178" y="8" width="28" height="28"/></g>
  <text x="192" y="52" font-family="'Press Start 2P','Courier New',monospace" font-size="7" fill="#fff" text-anchor="middle">Next.js</text>

  <!-- Coin -->
  <g class="f1" transform-origin="247 22"><g class="c1" transform-origin="247 22"><use href="#coin" x="241" y="15" width="12" height="14"/></g></g>

  <!-- TypeScript -->
  <g class="b2" transform-origin="302 22"><use href="#qb" x="288" y="8" width="28" height="28"/></g>
  <text x="302" y="52" font-family="'Press Start 2P','Courier New',monospace" font-size="5.5" fill="#60A5FA" text-anchor="middle">TypeScript</text>

  <!-- Coin -->
  <g class="f2" transform-origin="357 22"><g class="c2" transform-origin="357 22"><use href="#coin" x="351" y="15" width="12" height="14"/></g></g>

  <!-- Tailwind -->
  <g class="b3" transform-origin="412 22"><use href="#qb" x="398" y="8" width="28" height="28"/></g>
  <text x="412" y="52" font-family="'Press Start 2P','Courier New',monospace" font-size="6" fill="#38BDF8" text-anchor="middle">Tailwind</text>

  <!-- Coin -->
  <g class="f3" transform-origin="467 22"><g class="c3" transform-origin="467 22"><use href="#coin" x="461" y="15" width="12" height="14"/></g></g>

  <!-- Three.js -->
  <g class="b4" transform-origin="522 22"><use href="#qb" x="508" y="8" width="28" height="28"/></g>
  <text x="522" y="52" font-family="'Press Start 2P','Courier New',monospace" font-size="6" fill="#C4B5FD" text-anchor="middle">Three.js</text>

  <!-- Coin -->
  <g class="f4" transform-origin="577 22"><g class="c4" transform-origin="577 22"><use href="#coin" x="571" y="15" width="12" height="14"/></g></g>

  <!-- Azure -->
  <g class="b5" transform-origin="632 22"><use href="#qb" x="618" y="8" width="28" height="28"/></g>
  <text x="632" y="52" font-family="'Press Start 2P','Courier New',monospace" font-size="7" fill="#60A5FA" text-anchor="middle">Azure</text>
</svg>
